<svg width="128" height="192" viewBox="0 0 128 192" fill="none" xmlns="http://www.w3.org/2000/svg">
<path d="M6.2002 16.586V32.6172L10.2783 35.1485C12.458 36.5547 16.8877 39.2266 20.0518 41.1251L25.8174 44.5001L25.4658 49.8438C25.2549 52.7266 24.9736 55.961 24.833 57.0157C24.5518 58.7735 24.7627 58.9141 27.6455 59.336C29.333 59.6172 32.0049 59.6172 33.5518 59.336L36.4346 58.8438V51.8829V44.9219H39.9502H43.4658V51.8829V58.7735L45.6455 59.2657C48.458 59.8282 79.8877 59.8282 81.9971 59.2657C83.4736 58.8438 83.5439 58.4922 83.5439 51.8829V44.9219H86.9893H90.3643L90.8564 48.1563C91.0674 49.9844 91.2783 53.0782 91.2783 55.1172C91.2783 59.336 91.7705 59.6876 97.6064 59.6876C102.599 59.6876 102.739 59.4766 102.177 51.461L101.685 44.4297L109.278 40.0001C113.497 37.6094 117.997 34.7969 119.263 33.8829L121.513 32.1954V18.6251C121.513 11.1016 121.302 4.00006 121.091 2.80475L120.599 0.625061L108.927 0.765686L97.2549 0.976624L97.0439 6.74225L96.833 12.5782H87.4814H78.0596L77.5674 6.60162L77.0752 0.625061H63.4346H49.7939V6.60162V12.5782H39.9502H30.1064V6.60162V0.625061H18.1533H6.2002V16.586ZM105.271 32.6172L99.3643 36.4844H63.6455H27.9268L22.3018 32.8985C19.2783 30.9297 16.7471 29.1719 16.7471 29.0313C16.7471 28.8907 37.9814 28.7501 63.9268 28.7501H111.177L105.271 32.6172Z" fill="white"/>
<path d="M24.1299 67.5626C23.8486 68.336 22.3721 80.0782 22.3721 81.6251C22.3721 81.9766 30.7393 82.1876 41.0049 82.1876H59.6377V74.4532V66.7188H42.0596C28.6299 66.7188 24.3408 66.9297 24.1299 67.5626Z" fill="white"/>
<path d="M67.8643 67.211C67.583 67.4219 67.3721 70.9376 67.3721 74.9454V82.1876H86.0752H104.849L104.356 75.0157C104.075 71.0782 103.724 67.6329 103.513 67.2813C103.091 66.5782 68.4971 66.5079 67.8643 67.211Z" fill="white"/>
<path d="M21.3877 93.9297C21.1064 96.1797 20.7549 99.4844 20.5439 101.313L20.1221 104.688H28.2783H36.4346V97.3047V89.9219H29.1221H21.8096L21.3877 93.9297Z" fill="white"/>
<path d="M43.4658 97.3047V104.688H63.5049H83.5439V97.3047V89.9219H63.5049H43.4658V97.3047Z" fill="white"/>
<path d="M91.2783 97.3047V104.688H99.0127H106.747V102.719C106.747 101.594 106.536 98.2891 106.325 95.336L105.833 89.9219H98.5908H91.2783V97.3047Z" fill="white"/>
<path d="M19.2783 115.375C19.0674 117.063 18.7158 120.367 18.4346 122.758L18.0127 127.047L14.9189 127.82C10.9111 128.875 6.62207 132.742 5.0752 136.75C3.59863 140.617 4.16113 145.469 6.48145 148.984L8.09863 151.516L6.05957 153.906C4.86426 155.242 3.10645 158.125 2.05176 160.234C0.293945 163.961 0.223633 164.453 0.223633 177.461V190.82L63.7158 191.031L127.278 191.172L126.997 177.32C126.786 161.711 126.224 159.602 121.231 154.047C119.685 152.359 118.911 151.023 119.403 150.742C121.021 149.758 122.919 144.695 122.919 141.531C122.919 134.852 117.786 128.734 111.247 127.469L108.997 127.047L108.505 119.734L108.013 112.422H87.6924H67.3721V119.805V127.188H63.5049H59.6377V119.805V112.422H39.6689H19.7002L19.2783 115.375ZM112.935 137.453C114.06 138.227 114.481 139.211 114.481 141.25C114.481 144.414 113.216 145.961 110.052 146.523C108.786 146.734 87.0596 146.875 61.6768 146.734C17.3799 146.523 15.4111 146.453 14.0049 145.188C12.1064 143.43 12.0361 139.633 13.9346 137.734C15.3408 136.328 16.2549 136.328 63.3643 136.328C105.692 136.328 111.528 136.469 112.935 137.453ZM112.372 157.844C114.903 159.32 117.997 163.188 117.997 164.875C117.997 165.719 108.786 165.859 63.4346 165.859H8.94238L9.43457 164.242C10.6299 160.305 13.5127 157.703 17.8018 156.648C18.9971 156.367 40.1611 156.156 64.9111 156.227C108.927 156.367 109.981 156.367 112.372 157.844Z" fill="white"/>
</svg>
