<svg width="53" height="53" viewBox="0 0 53 53" fill="none" xmlns="http://www.w3.org/2000/svg">
<rect x="0.0151367" y="0.492249" width="52" height="52" rx="3" fill="#1A1A1A"/>
<g clip-path="url(#clip0_218_622)">
<path d="M26.0151 16.3673C26.7938 16.3673 27.5551 16.1363 28.2026 15.7037C28.8501 15.271 29.3548 14.6561 29.6528 13.9366C29.9508 13.2171 30.0288 12.4254 29.8769 11.6616C29.725 10.8978 29.35 10.1962 28.7993 9.64552C28.2486 9.09485 27.547 8.71984 26.7832 8.56791C26.0194 8.41598 25.2277 8.49395 24.5082 8.79197C23.7888 9.08999 23.1738 9.59467 22.7411 10.2422C22.3085 10.8897 22.0776 11.651 22.0776 12.4298C22.0776 13.474 22.4924 14.4756 23.2308 15.214C23.9692 15.9524 24.9708 16.3673 26.0151 16.3673ZM38.3901 39.9923H13.64C13.3417 39.9923 13.0555 40.1108 12.8446 40.3218C12.6336 40.5327 12.5151 40.8189 12.5151 41.1173V43.3673C12.5151 43.6656 12.6336 43.9518 12.8446 44.1627C13.0555 44.3737 13.3417 44.4922 13.64 44.4922H38.3901C38.6884 44.4922 38.9746 44.3737 39.1855 44.1627C39.3965 43.9518 39.5151 43.6656 39.5151 43.3673V41.1173C39.5151 40.8189 39.3965 40.5327 39.1855 40.3218C38.9746 40.1108 38.6884 39.9923 38.3901 39.9923ZM43.5137 21.441L41.5091 20.3216C40.986 19.9701 40.3201 20.1487 39.9418 20.6507C39.565 21.1552 39.0535 21.5431 38.466 21.7698C37.8786 21.9966 37.239 22.0529 36.621 21.9325C34.994 21.6308 33.8901 20.0889 33.8901 18.4344C33.8901 18.1846 33.7908 17.9449 33.6141 17.7682C33.4374 17.5915 33.1977 17.4923 32.9479 17.4923H30.2218C29.8 17.4923 29.4055 17.7735 29.3176 18.189C29.1581 18.9468 28.7428 19.6266 28.1415 20.1145C27.5402 20.6024 26.7894 20.8686 26.0151 20.8686C25.2407 20.8686 24.4899 20.6024 23.8886 20.1145C23.2873 19.6266 22.872 18.9468 22.7125 18.189C22.6246 17.7728 22.2329 17.4923 21.8083 17.4923H19.0822C18.8324 17.4923 18.5927 17.5915 18.416 17.7682C18.2393 17.9449 18.1401 18.1846 18.1401 18.4344C18.1401 20.2408 16.8041 21.8622 14.9992 21.9845C14.4384 22.0241 13.8766 21.9214 13.366 21.686C12.8555 21.4506 12.4126 21.0902 12.0784 20.638C11.7072 20.1395 11.0427 19.9736 10.5252 20.3188L8.51638 21.4438C8.28814 21.5959 8.12332 21.8261 8.05288 22.0911C7.98244 22.3562 8.01124 22.6378 8.13388 22.8831L15.3444 37.7423H36.6857L43.8962 22.8803C44.0189 22.635 44.0477 22.3533 43.9772 22.0883C43.9068 21.8232 43.742 21.5931 43.5137 21.441Z" fill="white"/>
</g>
<defs>
<clipPath id="clip0_218_622">
<rect width="36" height="36" fill="white" transform="translate(8.01514 8.49225)"/>
</clipPath>
</defs>
</svg>
