<svg width="798" height="532" viewBox="0 0 798 532" fill="none" xmlns="http://www.w3.org/2000/svg">
<g clip-path="url(#clip0_39_91)">
<g clip-path="url(#clip1_39_91)">
<rect width="798" height="532" fill="#1A1A1A"/>
<g clip-path="url(#clip2_39_91)">
<rect width="6" height="750" transform="translate(399.33 -156) rotate(45)" fill="#6D848A"/>
<rect width="18" height="750" transform="translate(414.886 -140.444) rotate(45)" fill="#6D848A"/>
<rect width="12" height="750" transform="translate(438.928 -116.402) rotate(45)" fill="#6D848A"/>
</g>
<g clip-path="url(#clip3_39_91)">
<rect width="12" height="750" transform="translate(881.33 208) rotate(45)" fill="#6D848A"/>
<rect width="18" height="750" transform="translate(901.129 227.799) rotate(45)" fill="#6D848A"/>
<rect width="6" height="750" transform="translate(925.171 251.841) rotate(45)" fill="#6D848A"/>
</g>
</g>
<rect x="322.814" y="139.618" width="150" height="137.25" rx="4" transform="rotate(-1 322.814 139.618)" fill="white"/>
<mask id="mask0_39_91" style="mask-type:luminance" maskUnits="userSpaceOnUse" x="339" y="156" width="120" height="101">
<path d="M456.47 156.955L339.821 158.991L341.53 256.892L458.179 254.856L456.47 156.955Z" fill="white"/>
</mask>
<g mask="url(#mask0_39_91)">
<path d="M399.745 249.625C428.506 249.123 451.536 232.396 451.184 212.264C450.833 192.131 427.233 176.218 398.473 176.72C369.712 177.222 346.682 193.949 347.034 214.082C347.385 234.214 370.985 250.127 399.745 249.625Z" fill="#242424"/>
<path d="M348.666 169.701C348.61 166.494 352.047 164.429 354.853 165.984L397.459 189.601C400.264 191.156 400.334 195.164 397.585 196.816L355.829 221.906C353.079 223.558 349.573 221.614 349.517 218.407L348.666 169.701Z" fill="#242424"/>
<path d="M440.966 164.154C443.715 162.502 447.222 164.446 447.278 167.653L448.128 216.359C448.184 219.566 444.747 221.632 441.942 220.076L399.336 196.459C396.53 194.904 396.46 190.896 399.21 189.244L440.966 164.154Z" fill="#242424"/>
<path d="M415.829 238.06L401.482 229.759L402.928 226.633C403.169 227.062 403.343 227.509 403.451 227.974C403.56 228.472 403.619 228.971 403.628 229.471C403.682 230.704 403.553 231.906 403.24 233.079C402.961 234.25 402.429 235.31 401.646 236.257C400.895 237.203 399.892 237.954 398.635 238.51C397.378 239.098 395.783 239.41 393.85 239.443C391.517 239.484 389.491 238.986 387.773 237.949C386.055 236.912 384.714 235.519 383.75 233.769C382.819 232.018 382.335 230.076 382.298 227.943C382.27 226.377 382.559 224.755 383.163 223.077C383.801 221.433 384.661 220.084 385.743 219.032L390.19 221.705C389.467 222.317 388.815 223.179 388.235 224.289C387.687 225.399 387.424 226.554 387.445 227.753C387.465 228.887 387.733 229.915 388.249 230.84C388.799 231.797 389.562 232.551 390.539 233.1C391.549 233.683 392.738 233.962 394.104 233.938C395.904 233.907 397.311 233.349 398.325 232.264C399.374 231.212 399.882 229.753 399.849 227.887C399.832 226.92 399.752 226.122 399.607 225.491C399.463 224.86 399.303 224.296 399.128 223.799L399.274 223.596L411.252 230.788L410.63 232.399L410.426 220.701L415.525 220.612L415.829 238.06Z" fill="white"/>
<path d="M382.013 204.945C382.042 206.611 381.62 208.202 380.746 209.718C379.872 211.233 378.644 212.488 377.061 213.482C375.478 214.444 373.686 214.942 371.686 214.977C369.253 215.019 367.161 214.505 365.409 213.436C363.656 212.366 362.298 210.956 361.334 209.206C360.336 207.423 359.82 205.532 359.785 203.532C359.745 201.266 360.21 199.224 361.178 197.407C362.147 195.59 363.505 194.133 365.253 193.035C367 191.938 369.007 191.37 371.274 191.33C373.907 191.284 376.315 191.726 378.498 192.654C380.648 193.584 382.62 194.833 384.414 196.402C386.175 197.971 387.806 199.71 389.306 201.617C390.773 203.525 392.156 205.434 393.457 207.345L389.619 210.963C388.204 208.221 386.713 205.846 385.144 203.84C383.542 201.834 381.948 200.279 380.362 199.173C378.775 198.034 377.28 197.393 375.878 197.251L375.902 195.8C377.819 196.733 379.306 197.891 380.364 199.273C381.421 200.621 381.97 202.512 382.013 204.945ZM377.479 203.024C377.447 201.191 376.887 199.683 375.8 198.502C374.679 197.322 373.285 196.746 371.619 196.775L370.619 196.792C369.486 196.845 368.475 197.163 367.585 197.745C366.662 198.328 365.925 199.091 365.375 200.034C364.824 200.977 364.56 202.049 364.581 203.249C364.601 204.415 364.886 205.477 365.436 206.434C365.986 207.391 366.766 208.145 367.776 208.694C368.752 209.21 369.906 209.457 371.24 209.433C372.506 209.411 373.618 209.109 374.574 208.525C375.531 207.942 376.268 207.179 376.785 206.236C377.268 205.261 377.499 204.19 377.479 203.024Z" fill="white"/>
<path d="M415.842 200.57C415.813 198.904 416.235 197.313 417.109 195.797C417.982 194.282 419.211 193.027 420.793 192.033C422.377 191.071 424.169 190.573 426.168 190.539C428.601 190.496 430.694 191.01 432.446 192.079C434.198 193.149 435.556 194.559 436.52 196.309C437.518 198.092 438.035 199.983 438.07 201.983C438.109 204.249 437.645 206.291 436.676 208.108C435.708 209.925 434.35 211.382 432.602 212.48C430.854 213.577 428.847 214.145 426.581 214.185C423.948 214.231 421.54 213.79 419.357 212.861C417.207 211.932 415.235 210.682 413.44 209.114C411.679 207.544 410.049 205.806 408.549 203.898C407.082 201.99 405.698 200.081 404.398 198.17L408.236 194.552C409.65 197.295 411.142 199.669 412.711 201.675C414.312 203.681 415.906 205.237 417.493 206.342C419.079 207.482 420.574 208.122 421.977 208.264L421.952 209.715C420.036 208.782 418.549 207.624 417.491 206.242C416.434 204.894 415.884 203.003 415.842 200.57ZM420.376 202.491C420.408 204.325 420.968 205.832 422.055 207.013C423.176 208.193 424.569 208.769 426.236 208.74L427.236 208.723C428.368 208.67 429.38 208.352 430.27 207.77C431.193 207.187 431.93 206.424 432.48 205.481C433.03 204.538 433.295 203.466 433.274 202.266C433.254 201.1 432.968 200.038 432.418 199.081C431.868 198.124 431.088 197.37 430.078 196.821C429.103 196.305 427.948 196.058 426.615 196.082C425.349 196.104 424.237 196.407 423.28 196.99C422.324 197.573 421.587 198.336 421.07 199.279C420.587 200.254 420.356 201.325 420.376 202.491Z" fill="white"/>
</g>
<rect x="187.51" y="292.847" width="425" height="112" rx="4" transform="rotate(1 187.51 292.847)" fill="#6D848A"/>
<path d="M259.072 362.586C258.381 363.044 257.347 363.602 255.97 364.261C254.636 364.877 253.048 365.404 251.205 365.842C249.406 366.28 247.418 366.458 245.243 366.378C241.618 366.272 238.366 365.575 235.486 364.287C232.65 363 230.247 361.273 228.28 359.105C226.313 356.894 224.799 354.392 223.738 351.6C222.721 348.766 222.239 345.77 222.294 342.614C222.356 339.115 222.966 335.926 224.126 333.044C225.286 330.12 226.909 327.588 228.995 325.448C231.123 323.309 233.584 321.666 236.378 320.52C239.215 319.375 242.297 318.831 245.624 318.889C248.482 318.939 251.057 319.368 253.347 320.176C255.637 320.984 257.562 321.914 259.123 322.965L256.324 329.317C255.101 328.443 253.58 327.605 251.759 326.805C249.981 325.964 247.983 325.523 245.765 325.485C243.589 325.447 241.512 325.858 239.534 326.72C237.6 327.54 235.872 328.726 234.352 330.278C232.874 331.789 231.691 333.582 230.801 335.657C229.912 337.69 229.447 339.922 229.404 342.354C229.361 344.828 229.705 347.117 230.436 349.221C231.168 351.324 232.224 353.156 233.605 354.717C235.029 356.278 236.735 357.503 238.726 358.391C240.716 359.279 242.969 359.745 245.486 359.789C247.875 359.831 249.972 359.505 251.776 358.811C253.623 358.117 255.131 357.312 256.299 356.393L259.072 362.586ZM267.797 366.259L268.665 316.539L275.064 316.651L274.558 345.638L274.513 344.549C275.439 342.816 276.829 341.389 278.684 340.269C280.538 339.15 282.746 338.612 285.305 338.657C287.822 338.701 289.878 339.483 291.473 341.005C293.111 342.527 293.93 344.483 293.931 346.872L293.585 366.709L286.994 366.594L287.3 349.061C287.281 347.695 286.895 346.579 286.142 345.712C285.39 344.803 284.204 344.313 282.583 344.242C281.133 344.217 279.803 344.642 278.592 345.517C277.383 346.349 276.424 347.527 275.714 349.051C275.006 350.532 274.635 352.232 274.601 354.152L274.388 366.374L267.797 366.259ZM316.261 367.745C313.147 367.691 310.491 367.047 308.294 365.814C306.097 364.538 304.42 362.823 303.263 360.669C302.106 358.473 301.552 355.988 301.601 353.215C301.647 350.57 302.35 348.193 303.709 346.083C305.112 343.931 306.956 342.235 309.239 340.995C311.565 339.755 314.114 339.16 316.887 339.208C320.471 339.27 323.417 340.367 325.727 342.499C328.08 344.631 329.628 347.581 330.373 351.349L308.421 358.519L306.952 354.653L324.531 348.687L323.173 349.495C322.684 348.164 321.893 346.998 320.801 345.997C319.71 344.954 318.205 344.416 316.285 344.382C314.749 344.355 313.356 344.715 312.105 345.461C310.898 346.166 309.921 347.173 309.172 348.483C308.467 349.751 308.1 351.259 308.069 353.008C308.038 354.8 308.373 356.385 309.074 357.762C309.819 359.098 310.825 360.161 312.091 360.952C313.4 361.742 314.865 362.152 316.486 362.18C317.638 362.201 318.73 362.006 319.761 361.597C320.835 361.189 321.847 360.674 322.796 360.05L325.719 364.966C324.296 365.837 322.747 366.536 321.074 367.061C319.444 367.545 317.84 367.773 316.261 367.745ZM345.208 368.187C343.246 368.152 341.353 367.778 339.531 367.063C337.709 366.306 336.213 365.234 335.042 363.849L337.922 360.186C339.056 361.273 340.193 362.103 341.335 362.678C342.521 363.211 343.647 363.487 344.714 363.505C345.567 363.52 346.336 363.448 347.022 363.29C347.708 363.088 348.268 362.757 348.703 362.295C349.138 361.833 349.362 361.218 349.376 360.45C349.391 359.554 349.105 358.845 348.517 358.323C347.928 357.8 347.168 357.36 346.235 357.003C345.303 356.645 344.306 356.308 343.244 355.99C340.996 355.226 339.308 354.172 338.179 352.83C337.051 351.444 336.503 349.835 336.535 348C336.559 346.592 336.924 345.276 337.628 344.051C338.376 342.783 339.482 341.757 340.946 340.972C342.411 340.187 344.21 339.813 346.343 339.85C348.305 339.884 350.029 340.149 351.514 340.644C352.999 341.097 354.373 341.868 355.634 342.957L353.005 346.879C352.25 346.098 351.343 345.506 350.284 345.104C349.267 344.659 348.333 344.408 347.48 344.351C346.712 344.337 346.006 344.453 345.362 344.698C344.718 344.9 344.2 345.232 343.808 345.695C343.417 346.115 343.216 346.623 343.205 347.22C343.148 348.073 343.413 348.782 344.001 349.347C344.631 349.87 345.435 350.31 346.41 350.669C347.386 350.985 348.34 351.321 349.273 351.679C350.588 352.086 351.752 352.64 352.764 353.34C353.777 353.998 354.574 354.801 355.154 355.75C355.735 356.699 356.013 357.899 355.988 359.349C355.96 360.928 355.55 362.414 354.758 363.809C353.966 365.16 352.774 366.249 351.18 367.075C349.588 367.858 347.597 368.228 345.208 368.187ZM371.766 368.65C369.804 368.616 367.912 368.242 366.089 367.527C364.267 366.77 362.771 365.698 361.6 364.312L364.481 360.65C365.614 361.736 366.752 362.567 367.894 363.142C369.079 363.675 370.205 363.95 371.272 363.969C372.125 363.984 372.895 363.912 373.58 363.753C374.266 363.552 374.827 363.22 375.262 362.758C375.696 362.296 375.921 361.682 375.934 360.914C375.95 360.018 375.663 359.309 375.075 358.786C374.487 358.264 373.726 357.824 372.794 357.466C371.861 357.109 370.864 356.771 369.803 356.454C367.555 355.689 365.866 354.636 364.737 353.293C363.609 351.908 363.061 350.298 363.093 348.464C363.118 347.056 363.482 345.739 364.186 344.514C364.934 343.247 366.04 342.221 367.505 341.436C368.969 340.65 370.768 340.276 372.901 340.314C374.863 340.348 376.587 340.613 378.072 341.108C379.558 341.561 380.931 342.331 382.192 343.42L379.563 347.343C378.809 346.562 377.902 345.97 376.842 345.567C375.826 345.123 374.891 344.872 374.039 344.814C373.271 344.801 372.565 344.916 371.92 345.161C371.277 345.363 370.759 345.696 370.367 346.158C369.975 346.578 369.774 347.087 369.764 347.684C369.706 348.536 369.971 349.245 370.559 349.81C371.19 350.333 371.993 350.774 372.968 351.132C373.944 351.448 374.898 351.785 375.831 352.143C377.147 352.55 378.311 353.103 379.323 353.804C380.335 354.462 381.132 355.265 381.713 356.214C382.294 357.163 382.572 358.363 382.546 359.813C382.519 361.391 382.109 362.878 381.316 364.272C380.524 365.624 379.332 366.713 377.739 367.538C376.146 368.321 374.155 368.692 371.766 368.65ZM449.11 365.327C448.46 365.871 447.554 366.41 446.393 366.944C445.231 367.479 443.922 367.947 442.464 368.348C441.049 368.75 439.592 369.066 438.095 369.296C436.596 369.568 435.186 369.693 433.863 369.67C430.109 369.605 426.749 368.97 423.783 367.766C420.817 366.562 418.285 364.917 416.188 362.833C414.091 360.748 412.49 358.33 411.386 355.58C410.325 352.787 409.823 349.77 409.88 346.528C409.949 342.561 410.65 339.052 411.984 336.003C413.317 332.954 415.09 330.403 417.302 328.351C419.558 326.256 422.124 324.701 425.001 323.684C427.921 322.626 430.96 322.124 434.116 322.179C436.889 322.228 439.443 322.592 441.778 323.273C444.156 323.955 446.189 324.822 447.878 325.876L445.529 332.108C444.684 331.624 443.625 331.157 442.353 330.708C441.124 330.217 439.85 329.832 438.532 329.553C437.214 329.274 436.001 329.125 434.892 329.106C432.161 329.058 429.701 329.421 427.511 330.193C425.365 330.924 423.511 332.022 421.949 333.489C420.387 334.955 419.161 336.747 418.271 338.865C417.423 340.984 416.976 343.387 416.929 346.075C416.886 348.507 417.274 350.754 418.091 352.816C418.909 354.836 420.073 356.606 421.583 358.126C423.094 359.603 424.908 360.766 427.027 361.614C429.147 362.419 431.508 362.844 434.11 362.889C435.603 362.915 437.077 362.792 438.533 362.518C439.989 362.245 441.233 361.84 442.267 361.303L442.414 352.857L433.456 352.7L433.571 346.109L449.44 346.386L449.11 365.327ZM470.33 370.435C467.813 370.391 465.539 369.839 463.51 368.779C461.48 367.677 459.887 366.07 458.729 363.959C457.571 361.848 457.019 359.257 457.072 356.185C457.125 353.156 457.789 350.565 459.064 348.411C460.382 346.257 462.075 344.623 464.143 343.507C466.254 342.349 468.525 341.791 470.957 341.833C473.517 341.878 475.597 342.469 477.199 343.606C478.844 344.702 480.123 345.983 481.036 347.45L480.571 348.466L481.303 343.166L487.382 343.272L486.914 370.084L480.323 369.969L480.441 363.25L481.117 364.862C480.94 365.2 480.569 365.685 480.003 366.315C479.438 366.902 478.68 367.529 477.73 368.195C476.822 368.862 475.746 369.42 474.5 369.867C473.298 370.273 471.908 370.462 470.33 370.435ZM472.215 365.091C473.623 365.115 474.886 364.881 476.004 364.389C477.122 363.896 478.073 363.187 478.858 362.262C479.642 361.337 480.195 360.237 480.515 358.963L480.613 353.395C480.292 352.195 479.734 351.161 478.939 350.294C478.144 349.384 477.175 348.663 476.032 348.131C474.932 347.599 473.699 347.322 472.334 347.298C470.798 347.271 469.384 347.631 468.09 348.376C466.798 349.079 465.756 350.085 464.965 351.394C464.174 352.703 463.763 354.232 463.733 355.981C463.704 357.645 464.061 359.166 464.805 360.545C465.592 361.924 466.64 363.03 467.948 363.864C469.257 364.655 470.679 365.064 472.215 365.091ZM503.367 343.551L503.842 349.32L503.594 348.868C504.653 346.881 506.088 345.348 507.899 344.27C509.711 343.15 511.79 342.61 514.136 342.651C515.587 342.676 516.884 342.934 518.027 343.423C519.214 343.913 520.183 344.591 520.936 345.458C521.689 346.325 522.161 347.4 522.352 348.683L522.029 348.87C523.128 347.011 524.562 345.564 526.329 344.528C528.14 343.45 530.049 342.929 532.054 342.964C534.656 343.009 536.712 343.792 538.221 345.312C539.774 346.832 540.551 348.766 540.553 351.113L540.205 371.014L533.678 370.9L533.982 353.495C533.962 352.172 533.662 351.057 533.08 350.151C532.541 349.245 531.547 348.737 530.098 348.626C528.563 348.6 527.189 349.045 525.978 349.963C524.81 350.881 523.893 352.081 523.227 353.563C522.561 355.045 522.192 356.639 522.12 358.345L521.904 370.695L515.313 370.58L515.617 353.174C515.597 351.851 515.297 350.736 514.715 349.83C514.133 348.924 513.097 348.415 511.605 348.304C510.069 348.277 508.717 348.723 507.549 349.641C506.381 350.559 505.464 351.781 504.797 353.306C504.174 354.788 503.847 356.361 503.818 358.025L503.603 370.375L497.012 370.26L497.48 343.448L503.367 343.551ZM562.911 372.051C559.797 371.996 557.141 371.352 554.944 370.119C552.747 368.843 551.07 367.129 549.913 364.975C548.756 362.778 548.202 360.293 548.25 357.521C548.297 354.876 549 352.498 550.359 350.388C551.762 348.236 553.606 346.54 555.889 345.3C558.215 344.06 560.764 343.465 563.537 343.513C567.121 343.576 570.067 344.673 572.377 346.804C574.73 348.936 576.278 351.886 577.023 355.654L555.071 362.824L553.602 358.958L571.181 352.992L569.823 353.8C569.334 352.469 568.543 351.303 567.451 350.303C566.36 349.259 564.855 348.721 562.935 348.687C561.399 348.661 560.006 349.02 558.755 349.767C557.548 350.471 556.571 351.478 555.822 352.788C555.117 354.056 554.75 355.564 554.719 357.313C554.688 359.105 555.023 360.69 555.724 362.068C556.469 363.404 557.475 364.467 558.741 365.257C560.05 366.048 561.515 366.457 563.136 366.486C564.288 366.506 565.38 366.312 566.411 365.903C567.485 365.495 568.497 364.979 569.446 364.356L572.369 369.271C570.946 370.143 569.397 370.841 567.724 371.367C566.094 371.85 564.49 372.078 562.911 372.051Z" fill="white"/>
</g>
<defs>
<clipPath id="clip0_39_91">
<rect width="798" height="532" fill="white"/>
</clipPath>
<clipPath id="clip1_39_91">
<rect width="798" height="532" fill="white"/>
</clipPath>
<clipPath id="clip2_39_91">
<rect width="68" height="750" fill="white" transform="translate(399.33 -156) rotate(45)"/>
</clipPath>
<clipPath id="clip3_39_91">
<rect width="68" height="750" fill="white" transform="translate(881.33 208) rotate(45)"/>
</clipPath>
</defs>
</svg>
