<svg width="202" height="205" viewBox="0 0 202 205" fill="none" xmlns="http://www.w3.org/2000/svg">
<path d="M66.1453 0.89849C64.3875 1.25005 60.8719 2.37505 58.3407 3.35943L53.7703 5.18755L49.9735 3.42974C40.411 -0.999948 28.8094 3.00786 23.8875 12.5704C21.8485 16.4376 21.3563 24.3126 22.9032 28.0391C25.8563 35.1407 31.4813 39.9219 38.0907 40.9766C42.8016 41.7501 46.7391 40.9063 53.2078 37.8829C58.3407 35.4922 60.661 34.7188 58.4813 36.1251C57.5672 36.7579 57.5672 36.8282 58.4813 36.8282C59.3953 36.8282 65.3016 47.2344 64.6688 47.7266C64.5282 47.7969 62.911 48.9219 60.9422 50.1876C56.9344 52.9297 49.3407 59.8907 49.3407 60.9454C49.3407 61.2969 53.6297 66.7813 58.9032 73.0391L68.536 84.5001L72.4735 83.0938C75.5672 81.9688 77.6766 81.7579 82.036 81.9688C88.9266 82.3907 93.3563 84.4297 97.786 89.211C102.286 94.0626 103.763 97.9297 103.833 104.68C103.833 109.672 103.552 110.867 101.513 115.016C96.45 125.352 84.3563 130.625 73.8094 127.039L69.8016 125.633L66.7782 129.219C65.0907 131.188 61.2235 135.758 58.2 139.344L52.6453 145.813L54.6141 147.43C55.6688 148.273 59.4657 150.734 62.9813 152.914C70.575 157.625 73.3172 160.93 73.8094 166.133C74.5125 173.375 69.7313 178.789 58.411 183.43C47.9344 187.789 39.9891 193.063 33.8719 199.672L30.7078 203.117L33.5203 203.609C37.95 204.383 59.6063 204.242 66.5672 203.399C74.9344 202.344 87.0282 199.25 94.8329 196.156L101.091 193.625L106.013 195.734C115.434 199.672 126.052 200.164 138.497 197.141C141.661 196.367 145.739 194.961 147.567 194.047L150.872 192.359L146.302 187.789C142.575 184.063 140.325 182.516 133.505 179.281C122.606 174.078 118.809 170.633 117.473 164.797C116.138 159.031 119.161 154.461 128.302 148.344C134.981 143.914 142.294 136.742 146.442 130.695C149.114 126.758 150.731 124.648 149.606 126.617C149.325 127.18 149.536 127.531 150.239 127.531C150.872 127.531 151.153 127.18 150.942 126.828C150.661 126.406 151.645 126.617 153.052 127.32C154.458 128.023 155.442 128.867 155.231 129.43C155.02 129.922 154.669 132.594 154.388 135.406C153.544 145.391 156.848 155.445 163.106 161.844C167.606 166.414 170.841 167.82 177.52 168.172C182.302 168.453 183.427 168.242 186.731 166.625C193.341 163.391 199.106 155.445 201.216 146.656C203.466 136.953 198.122 128.656 188.348 126.758C185.044 126.055 184.341 125.703 184.692 124.789C188.981 113.68 190.177 107 190.388 93.0782C190.458 86.3282 190.809 78.5235 191.02 75.8516C192.005 66.5001 188.067 56.5157 180.895 50.0469C178.505 47.9376 176.606 45.6876 176.606 45.1251C176.606 44.5626 175.481 41.8204 174.145 39.0782C170.208 31.2735 162.544 24.8047 154.739 22.6954C152.419 22.1329 151.153 21.2188 149.536 18.9688C146.794 15.3126 140.114 10.8126 134.77 9.05474C132.309 8.2813 128.161 7.64849 124.927 7.57818C119.723 7.43755 119.02 7.22662 115.645 4.97662C108.895 0.406302 97.7157 -0.929636 89.2078 1.67193C84.9891 2.93755 84.4266 3.00786 81.6844 2.02349C77.8875 0.687552 70.3641 0.195364 66.1453 0.89849ZM98.911 12.9219C101.723 16.8594 106.153 19.2501 111.919 19.7422L116.278 20.1641L114.028 21.0782C109.528 22.9766 98.3485 21.6407 94.411 18.7579C92.0907 16.9297 91.036 13.4844 92.161 11.0938C93.4266 8.2813 96.1688 9.05474 98.911 12.9219ZM65.5828 12.1485C67.9735 15.4532 72.0516 17.2813 78.0985 17.7735L83.4422 18.2657L81.0516 19.7422C77.8172 21.7813 72.1219 22.4141 67.4813 21.3594C61.0828 19.8126 57.2157 14.3282 60.3094 11.2344C61.9266 9.54693 63.8953 9.89849 65.5828 12.1485ZM37.2469 14.961C37.3172 18.4766 39.5672 22.9063 42.2391 24.8047C43.9969 26.0704 49.5516 27.6876 52.6453 27.8985C55.036 28.0391 49.0594 31.9063 44.9813 32.8907C38.0907 34.5079 29.8641 22.836 33.2391 16.2266C34.2235 14.2579 36.0516 12.2188 36.6844 12.2188C36.9657 12.2188 37.2469 13.4844 37.2469 14.961ZM132.591 18.6876C133.153 19.6016 133.856 21.1485 134.067 22.2032C134.348 23.2579 135.684 25.2266 137.02 26.6329C139.481 29.1641 146.794 33.3126 148.973 33.3829C149.888 33.3829 149.747 33.5938 148.481 34.086C144.895 35.5626 135.473 33.3829 131.114 30.0782C127.177 27.0547 125.559 21.9922 127.388 18.4766C128.442 16.6485 131.325 16.7891 132.591 18.6876ZM103.2 29.8672C132.591 33.9454 157.411 54.4063 163.95 80.0001C165.567 86.3282 165.848 98.4922 164.583 105.453C163.669 110.445 159.872 120.5 158.958 120.5C158.325 120.5 154.177 118.602 153.544 118.039C153.403 117.898 154.177 114.453 155.161 110.234C156.848 103.484 157.059 101.797 156.778 93.5001C156.497 85.4844 156.216 83.5157 154.317 78.1719C147.848 59.6797 134.7 47.1641 115.645 41.2579C109.95 39.5001 108.473 39.3594 97.5047 39.3594C85.411 39.3594 82.8797 39.7813 72.8953 43.5782C72.1922 43.8594 67.6219 34.5079 67.6219 32.7501C67.6219 32.1876 75.1453 30.3594 80.9813 29.5157C84.9891 28.9532 98.1375 29.1641 103.2 29.8672ZM163.247 37.6016C163.809 38.5157 163.809 39.9922 163.388 42.0313C162.263 47.3047 164.864 53.7032 170.278 59.1172C172.95 61.8594 172.669 62.0001 168.731 59.961C164.794 57.9922 158.536 51.8751 156.708 48.4297C154.669 44.4219 154.739 40.2032 156.848 37.9532C158.958 35.7032 162.192 35.4922 163.247 37.6016ZM180.895 70.5782C182.653 71.5626 182.583 74.3751 180.684 76.9063C178.223 80.211 178.153 93.0782 180.544 101.516L181.036 103.273L179.489 101.867C175.763 98.5626 172.388 88.4376 172.388 80.4922C172.388 74.586 173.302 72.1251 175.903 70.7891C178.083 69.6641 179.138 69.6641 180.895 70.5782ZM174.075 122.75C174.567 124.227 174.286 126.125 172.669 131.188C171.263 135.828 170.63 139.203 170.63 142.789C170.63 147.219 170.841 148.133 172.739 150.805C175.411 154.602 178.786 156.922 182.513 157.555L185.395 157.977L183.286 158.891C180.473 160.086 175.692 160.086 172.88 158.891C166.622 156.289 162.052 146.445 162.684 137.164C163.106 131.82 165.216 125.281 167.466 122.398C169.434 119.938 173.161 120.148 174.075 122.75ZM190.177 138.148C192.356 139.133 193.481 141.594 193.481 145.32C193.411 149.82 190.95 152.141 186.098 152.141C181.247 152.141 178.786 149.82 178.716 145.25C178.716 141.734 180.263 138.359 182.02 137.867C184.411 137.234 188.489 137.375 190.177 138.148Z" fill="#1A1A1A"/>
<path d="M35.6299 13.6251C35.4189 13.9767 35.5596 14.3282 35.9111 14.3282C36.333 14.3282 36.6846 13.9767 36.6846 13.6251C36.6846 13.2032 36.5439 12.922 36.4033 12.922C36.1924 12.922 35.8408 13.2032 35.6299 13.6251Z" fill="#1A1A1A"/>
<path d="M178.575 71.0704C179.067 71.2813 179.7 71.211 179.911 71.0001C180.192 70.7891 179.77 70.5782 178.997 70.6485C178.224 70.6485 178.013 70.8595 178.575 71.0704Z" fill="#1A1A1A"/>
<path d="M21.4971 81.6173C11.9346 92.797 3.42676 102.641 2.5127 103.695L0.825195 105.453L4.83301 110.375C9.05176 115.438 35.9815 146.656 38.0908 148.836C39.2158 150.102 39.8486 149.469 52.2236 135.195C59.3252 127.039 65.8643 119.445 66.708 118.461C68.1143 116.774 68.2549 116.703 69.5205 117.828C74.3018 122.188 82.1768 123.031 88.083 119.938C98.7705 114.383 100.739 100.953 92.1612 92.5157C88.6455 89.0704 85.4815 87.8048 80.2783 87.8751C75.4971 87.8751 72.8955 88.8595 69.2393 91.9532L67.2705 93.6407L53.5596 77.5392C46.0361 68.6798 39.6377 61.4376 39.3565 61.4376C39.0752 61.4376 31.0596 70.5079 21.4971 81.6173ZM38.0908 92.0236C38.8643 92.7267 39.4971 93.5704 39.4971 93.8517C39.4971 94.2032 37.3877 96.8048 34.8565 99.7579L30.2158 105.102L33.6611 108.969C40.3408 116.633 39.9893 115.859 37.669 118.672C36.544 120.008 35.419 121.133 35.208 121.133C34.6455 121.203 21.2158 105.805 21.2158 105.102C21.2158 104.75 24.0283 101.305 27.4736 97.5079C34.1533 90.1251 35.3486 89.4923 38.0908 92.0236ZM86.3955 97.7189C88.294 98.9142 89.7002 103.695 89.0674 106.93C88.8565 108.195 87.8721 110.094 86.958 111.149C85.4815 112.906 84.8487 113.117 80.7002 113.117C76.6221 113.117 75.8486 112.906 74.2315 111.219C70.1533 107.211 71.7002 98.5626 76.7627 96.8048C79.5752 95.8204 84.0752 96.2423 86.3955 97.7189Z" fill="#1A1A1A"/>
<path d="M67.6221 117.969C67.6221 118.109 68.1143 118.461 68.7471 118.672C69.3096 118.883 69.5908 118.813 69.3799 118.391C68.958 117.688 67.6221 117.406 67.6221 117.969Z" fill="#1A1A1A"/>
<path d="M100.528 194.82C101.02 195.031 101.653 194.961 101.864 194.75C102.145 194.539 101.724 194.328 100.95 194.399C100.177 194.399 99.9657 194.609 100.528 194.82Z" fill="#1A1A1A"/>
</svg>
