<svg width="199" height="202" viewBox="0 0 199 202" fill="none" xmlns="http://www.w3.org/2000/svg">
<path d="M93.9503 4.71093C94.794 7.38281 95.4269 9.5625 95.2862 9.70312C95.2159 9.77343 93.1065 9.21093 90.6456 8.4375C88.1847 7.66406 85.9347 7.03125 85.6534 7.03125C85.3019 7.03125 85.0909 10.1953 85.0909 14.0625C85.0909 17.9297 85.1612 21.0937 85.3019 21.0937C85.3722 21.0937 87.13 20.6016 89.169 20.1094C95.2159 18.4922 95.5675 18.9844 94.1612 27.1406C93.3878 31.4297 93.3175 31.6406 90.294 33.0469C85.7237 35.2969 80.4503 41.4844 79.044 46.1953C77.5675 51.2578 77.9894 58.3594 80.0284 62.2969L81.505 65.1797L75.8097 61.4531C65.1925 54.4219 53.3097 50.5547 42.2003 50.5547C34.255 50.4844 30.2472 51.3984 23.2159 54.7031C12.1769 59.8359 3.17686 72.1406 1.27842 84.5859C-0.690329 97.7344 4.37217 114.75 14.9894 130.711L18.9269 136.477L17.2394 139.008C14.005 143.719 13.9347 151.875 17.0284 156.586C18.1534 158.273 18.9269 160.734 19.2081 163.336C19.419 165.727 20.3331 168.609 21.3175 170.367C22.5128 172.406 23.1456 174.797 23.3565 178.031C24.13 187.242 27.505 190.758 38.6847 193.992C58.1612 199.547 72.8565 201.375 99.505 201.375C124.044 201.445 140.778 199.617 156.458 195.188C158.427 194.625 161.802 193.641 164.052 193.008C171.716 190.828 175.724 185.414 175.794 177.398C175.794 175.008 176.146 172.828 176.567 172.547C178.044 171.633 180.013 166.219 180.013 162.914C180.013 160.383 180.435 158.906 181.7 157.289C183.81 154.477 185.146 149.133 184.513 145.688C184.232 144.211 183.247 141.609 182.263 139.781L180.505 136.477L184.161 131.203C196.325 113.625 201.458 91.6172 196.607 77.9063C190.7 61.2422 175.724 50.5547 158.286 50.4844C146.614 50.4844 133.185 54.8438 122.497 62.0859C120.388 63.4922 118.911 64.2656 119.122 63.7734C122.216 56.3203 122.286 49.0781 119.333 43.1719C117.224 39.0234 111.458 33.4687 108.013 32.3437C105.763 31.6406 105.692 31.4297 104.919 26.1562C103.864 19.4766 103.864 18.2812 104.849 18.2812C105.2 18.2812 105.341 18.6328 105.06 19.125C104.778 19.6172 104.849 19.6875 105.341 19.4062C105.763 19.125 107.802 19.4062 109.841 20.0391C111.81 20.6016 113.567 21.0937 113.708 21.0937C113.849 21.0937 113.919 17.9297 113.919 14.0625C113.919 10.1953 113.638 7.03125 113.286 7.03125C112.935 7.03125 111.458 7.45312 109.982 7.94531C108.435 8.50781 106.396 9.14062 105.411 9.35156L103.513 9.84375L104.849 5.55468C105.552 3.23437 106.185 0.984371 106.185 0.632809C106.185 0.281246 103.091 -3.8147e-06 99.294 -3.8147e-06H92.4034L93.9503 4.71093ZM104.075 48.1641C106.677 50.4844 106.185 56.8125 103.372 58.3594C101.192 59.5547 97.3253 59.1328 95.3565 57.5859C92.2628 55.1953 93.0362 48.5859 96.5519 47.1094C98.5909 46.1953 102.528 46.7578 104.075 48.1641ZM49.9347 68.2734C54.7862 69.3281 63.9268 74.0391 69.8331 78.4688C76.0909 83.1094 85.7237 94.0781 88.5362 99.7031C90.8565 104.344 92.544 109.336 93.3878 114.047L94.0206 117.281L89.9425 117.773C87.6925 118.055 85.5128 118.055 85.0206 117.773C84.5987 117.492 83.4737 115.594 82.63 113.625C78.13 103.5 64.419 87.75 56.4737 83.4609C47.4034 78.6094 38.0519 81.1406 33.5519 89.5781C32.2159 92.1094 32.005 93.5156 32.0753 101.25C32.1456 109.758 32.2862 111.023 35.5909 122.133C35.9425 123.469 35.5909 123.75 32.2862 124.734C27.9972 126 28.63 126.492 24.6222 118.828C20.544 110.813 18.9269 105.258 18.505 97.6641C18.0128 89.2969 18.9269 85.0781 22.5128 79.4531C28.2784 70.5938 39.669 65.8828 49.9347 68.2734ZM165.458 70.1719C171.857 73.3359 175.372 76.7109 178.044 82.125C180.013 86.1328 180.435 87.6797 180.646 93.0938C180.997 102.867 178.817 111.234 173.192 121.43L170.802 125.719L167.286 124.805C165.317 124.242 163.56 123.75 163.489 123.609C163.349 123.469 164.052 120.375 165.036 116.719C166.513 111.305 166.864 108.352 166.935 101.25C167.005 91.3359 166.161 88.6641 161.45 84.5859C156.599 80.2266 149.357 79.8047 142.888 83.3203C134.521 87.8906 122.638 101.25 117.153 112.359L114.271 118.266L111.81 117.844C110.474 117.633 108.364 117.422 107.169 117.422H104.989L105.552 114.047C107.169 105.68 110.333 98.7188 115.817 91.9688C123.833 81.9141 130.091 76.7109 139.794 71.7891C149.567 66.8672 157.653 66.375 165.458 70.1719ZM98.5909 74.3906C101.614 74.5313 105.06 74.3203 106.255 73.8984C107.521 73.4766 108.646 73.2656 108.786 73.4063C108.997 73.5469 108.013 75.0938 106.747 76.7813C105.482 78.3984 103.442 81.2813 102.317 83.1094C101.122 85.0078 100.067 86.4844 99.8565 86.4844C99.6456 86.4844 98.38 84.8672 97.044 82.8281C95.7081 80.7891 93.2472 77.5547 91.63 75.5156L88.7472 71.8594L90.9269 72.9844C92.1925 73.6875 95.4972 74.25 98.5909 74.3906ZM54.5753 97.875C54.8565 98.2266 54.4347 99.7734 53.8019 101.25C53.0987 102.797 52.7472 104.484 52.9581 105.047C53.5909 106.594 56.0519 106.453 56.9659 104.836C57.9503 102.938 59.7081 101.25 60.6925 101.25C61.1847 101.25 61.1144 101.602 60.4815 102.023C59.6378 102.656 59.7784 102.727 61.044 102.445C62.4503 102.094 62.8722 102.516 63.7159 104.555C64.2784 105.891 64.7003 108.141 64.5597 109.547C64.419 111.656 64.0675 112.219 62.7315 112.359C61.8175 112.5 60.3409 112.078 59.4269 111.516C57.4581 110.18 55.8409 110.109 55.2081 111.164C54.294 112.57 55.5597 115.313 58.7237 118.828C60.6925 121.008 61.8878 123.047 61.8878 124.102C61.8878 126.211 60.9034 126.141 77.7081 124.805C96.3409 123.328 105.552 123.398 131.005 125.578L136.419 126.07V124.242C136.419 123.047 137.544 121.078 139.583 118.828C144.786 112.922 144.716 108.984 139.372 111.375C135.013 113.344 133.958 112.781 133.958 108.422C134.028 105.328 134.31 104.414 135.997 102.797L137.896 100.898L140.216 103.641C141.763 105.398 142.958 106.242 143.872 106.031C145.419 105.75 145.489 104.133 144.083 100.758C142.958 97.9453 143.591 97.0313 147.458 96.5391C149.708 96.2578 150.552 96.5391 152.45 98.0859C153.716 99.1406 154.7 100.336 154.7 100.758C154.7 101.25 153.505 102.586 152.099 103.781C150.341 105.258 149.708 106.313 149.989 107.086C150.482 108.352 153.646 108.703 154.349 107.578C154.56 107.156 155.685 106.875 156.81 106.875C158.427 106.875 158.989 107.227 159.341 108.633C160.044 111.305 159.06 114.891 157.232 116.648C155.263 118.547 153.786 118.055 151.958 114.891C149.146 110.109 146.333 113.273 147.669 119.813C148.021 121.781 148.442 124.313 148.583 125.508C148.724 127.617 148.724 127.617 156.739 129.234C161.169 130.078 165.528 131.273 166.372 131.836C168.482 133.172 168.903 135.422 167.357 137.25L166.161 138.797L156.388 136.898C139.091 133.523 130.442 132.75 106.747 132.398C78.0597 131.906 63.7159 132.961 41.6378 137.25C32.7081 138.938 31.4425 138.727 31.0909 135.141C30.8097 132.188 32.5675 131.133 40.794 129.375C50.2159 127.406 50.5675 127.266 50.1456 126.07C49.9347 125.508 50.1456 122.906 50.6378 120.305C52.044 112.922 49.5128 109.898 46.2784 114.961C45.3644 116.297 44.2394 117.563 43.6769 117.773C41.2862 118.688 38.1925 112.852 39.0362 108.984C39.669 106.172 40.2315 105.961 43.5362 107.297C48.669 109.336 50.3565 106.945 46.0675 103.641C43.255 101.531 43.044 100.547 45.0128 98.7891C47.3331 96.6797 53.4503 96.1172 54.5753 97.875ZM106.185 151.242C109.63 152.859 112.513 154.406 112.513 154.688C112.513 155.039 109.63 156.656 106.044 158.414L99.6456 161.578L93.0362 158.344C89.4503 156.516 86.4972 154.898 86.4972 154.617C86.4972 154.336 98.6612 148.5 99.6456 148.359C99.7159 148.359 102.669 149.695 106.185 151.242ZM68.7081 153C69.2003 153.703 69.6222 155.602 69.6222 157.289C69.6222 161.297 67.8643 163.125 63.9972 163.125C60.13 163.125 58.3722 161.297 58.3722 157.219C58.3722 154.617 58.7237 153.844 60.3409 152.578C62.5909 150.75 67.2315 151.031 68.7081 153ZM139.724 152.789C140.286 153.352 140.919 155.109 141.13 156.656C141.482 159.047 141.2 159.75 139.724 161.297C137.755 163.266 134.591 163.688 131.989 162.352C129.81 161.156 129.388 160.383 129.388 157.289C129.388 153.281 132.06 150.891 135.857 151.383C137.403 151.594 139.161 152.227 139.724 152.789ZM46.1378 158.414C46.2784 158.484 43.8878 160.734 40.9347 163.336C35.7315 167.977 35.38 168.117 32.4269 167.836C28.5597 167.414 27.0831 165.938 27.0831 162.422C27.0831 159.258 29.6144 155.883 31.5128 156.586C32.1456 156.867 32.4269 156.727 32.1456 156.305C31.794 155.672 45.505 157.711 46.1378 158.414ZM171.716 159.258C172.489 160.313 172.419 163.547 171.505 165.516C170.732 167.133 168.411 168.047 164.966 168.047C164.122 168.047 161.31 165.938 158.216 163.055C155.333 160.313 153.364 158.273 153.857 158.555C154.278 158.766 154.7 158.695 154.7 158.344C154.7 157.5 165.388 155.953 167.005 156.516C167.989 156.938 168.13 156.797 167.708 156.023C167.146 155.039 170.732 157.922 171.716 159.258ZM132.06 175.43C141.974 176.484 158.005 179.227 163.419 180.773L166.091 181.547L162.364 184.289C159.2 186.539 158.146 186.961 156.247 186.68C134.099 182.883 118.138 181.828 91.8409 182.32C71.5206 182.742 60.8331 183.586 47.1222 185.977L41.2159 187.031L36.9972 184.289L32.8487 181.547L35.5909 180.844C45.6456 178.242 64.0675 175.43 78.0597 174.445C90.0128 173.531 119.755 174.094 132.06 175.43Z" fill="#1A1A1A"/>
</svg>
