<svg width="215" height="192" viewBox="0 0 215 192" fill="none" xmlns="http://www.w3.org/2000/svg">
<path d="M95.6066 3.39069C92.0207 6.2735 87.591 11.2657 84.9894 15.1329L83.9347 16.8204L80.1379 13.8672C76.4113 10.9141 70.3644 7.46881 68.8879 7.46881C66.8488 7.46881 63.2629 20.7579 63.2629 28.1407V31.7969L58.5519 34.8907C50.6066 40.0938 45.1222 46.211 40.4113 55.211C35.4894 64.7735 31.9738 68.7813 23.8879 74.336C16.5754 79.3282 3.77848 92.2657 1.52848 96.836C-0.651208 101.336 -0.510583 105.906 2.02067 111.18C4.41129 116.383 9.96598 121.586 14.8879 123.274C17.5597 124.258 18.6144 125.031 19.2472 126.649C20.4425 129.391 23.8175 132.274 27.1222 133.328C32.6066 135.156 43.0129 132.414 49.5519 127.422C50.7472 126.508 54.1222 124.75 57.0754 123.555C62.4191 121.305 70.8566 115.891 73.3879 113.008C74.5832 111.742 75.4972 111.531 80.4191 111.531C87.3801 111.531 92.9347 110.195 99.4738 107.031C102.146 105.695 104.536 104.711 104.677 104.922C105.45 105.695 105.521 119.336 104.747 122.992C103.693 128.336 99.6144 136.281 96.8019 138.602C95.5363 139.586 91.7394 142.399 88.2238 144.789C80.5597 150.063 67.2707 163.141 61.2238 171.297C56.091 178.258 48.8488 190.141 49.4113 190.703C49.6222 190.914 53.9816 191.266 59.1847 191.477C76.0597 192.18 94.4113 189.438 111.849 183.672C128.232 178.258 141.028 176.5 159.239 177.133C176.044 177.766 188.63 180.086 204.099 185.5C208.669 187.047 212.536 188.242 212.677 188.031C213.38 187.399 214.505 160.82 214.083 155.828C213.099 144.789 210.286 134.945 206.349 128.969C204.872 126.719 204.732 126.086 205.435 124.188C206.7 120.391 205.716 109.914 203.325 103.094C200.724 95.6407 196.857 87.836 192.989 82.3516C190.95 79.3985 189.896 77.0782 189.614 74.8282C188.489 66.5313 177.38 51.4844 166.833 43.8907C164.864 42.4141 163.247 40.3751 161.771 37.3516C158.325 30.3907 147.357 21.3204 139.2 18.6485C137.864 18.2266 134.841 17.1016 132.521 16.2579C127.88 14.4297 119.021 13.0938 111.638 13.0938H106.927L104.747 8.66412C103.622 6.2735 101.864 3.39069 101.021 2.26569L99.4035 0.226624L95.6066 3.39069ZM128.091 22.3047C135.825 24.5547 135.755 27.4376 127.95 29.1954C122.677 30.3907 117.966 30.1094 113.466 28.2813C109.458 26.6641 109.318 26.5235 109.107 23.7813C108.896 21.0391 108.966 20.8985 111.216 20.6172C115.435 20.1251 123.31 20.8985 128.091 22.3047ZM151.997 36.2266C156.497 40.2344 156.427 42.2032 151.857 42.4844C150.169 42.6251 147.357 42.3438 145.599 41.9219C141.169 40.7969 131.466 36.9297 131.466 36.2969C131.466 36.0157 132.31 35.5235 133.294 35.3126C134.278 35.0313 136.388 33.9766 138.005 32.9219C139.622 31.9376 141.169 31.0938 141.45 31.0235C141.661 31.0235 142.154 30.8126 142.435 30.5313C143.138 29.7579 148.06 32.6407 151.997 36.2266ZM85.6926 36.7891C85.7629 36.5079 87.2394 37.0704 88.9972 38.1251C91.6691 39.6719 92.7238 39.9532 95.5363 39.6016C99.8957 39.1094 101.021 39.8126 98.9816 41.711C93.0051 47.1251 85.4113 44.9454 84.6379 37.7032C84.4269 35.3829 84.4972 34.8907 84.9894 35.9454C85.341 36.7188 85.6926 37.0704 85.6926 36.7891ZM101.583 38.4063C101.372 38.7579 100.739 39.1094 100.318 39.1094C99.8254 39.1094 99.8957 38.8282 100.528 38.4063C101.864 37.5626 102.146 37.5626 101.583 38.4063ZM70.7863 49.0938C72.6144 50.5704 71.841 52.2579 69.0285 52.6798C66.4269 53.1016 66.4269 53.2423 66.6379 55.7735C66.8488 57.7423 66.4972 58.8673 65.3722 59.9923C63.4035 62.172 59.3957 62.172 57.1457 60.0626L55.4582 58.5157L53.841 60.5548C52.4347 62.3126 52.0129 62.5235 51.0285 61.6798C48.216 59.3595 50.6066 54.297 55.7394 51.6251C62.7707 48.0391 68.3957 47.0548 70.7863 49.0938ZM165.708 53.5235C174.849 61.8907 183.708 74.4063 182.583 77.3595C181.599 79.8204 176.466 77.8516 169.435 72.5079C164.583 68.7813 160.927 65.1251 153.193 56.6876L147.146 50.0079L149.677 50.2188C151.083 50.2891 153.614 50.1485 155.372 49.7266C157.13 49.3751 159.028 49.0938 159.591 49.0235C160.224 48.9532 162.966 50.9923 165.708 53.5235ZM120.286 76.0938C122.607 78.9063 120.075 87.6954 114.943 94.6563C112.341 98.2423 109.247 100 106.927 99.2266C104.888 98.5938 104.325 95.711 105.732 93.7423C109.388 88.8204 111.778 84.672 113.114 80.9454C113.958 78.6251 115.013 76.3751 115.435 75.8829C116.489 74.6173 119.161 74.7579 120.286 76.0938ZM177.38 85.2345C179.208 85.8673 181.95 86.2188 183.497 86.0782L186.239 85.8673L189.403 91.8438C199.81 111.602 202.13 129.461 193.2 120.461C189.193 116.524 185.536 110.336 180.685 99.297C178.083 93.461 175.482 87.6251 174.778 86.3595C174.146 85.1641 173.724 84.1095 173.864 84.1095C174.005 84.1095 175.622 84.6016 177.38 85.2345ZM23.7472 97.6798C25.0832 98.7345 24.7316 101.477 23.0441 102.672C22.2004 103.305 20.1613 103.797 18.6144 103.797C14.0441 103.797 11.4425 101.125 13.2707 98.3126C14.5363 96.3438 21.4972 95.922 23.7472 97.6798ZM46.3879 105.484C48.6379 108.227 45.3332 111.813 34.7863 117.789C27.8957 121.797 25.5754 122.57 24.0285 121.656C22.2004 120.461 22.13 117.93 23.9582 116.031C24.8019 115.117 25.8566 114.344 26.2785 114.344C26.7004 114.344 30.4972 112.094 34.716 109.422C42.5207 104.43 44.841 103.656 46.3879 105.484ZM191.513 129.25C191.232 129.672 191.302 129.813 191.724 129.602C192.075 129.391 193.974 129.742 195.872 130.445C198.825 131.5 199.599 132.203 201.075 135.156C202.622 138.18 202.833 139.445 202.763 145.281C202.622 155.477 199.669 162.649 196.575 160.117C194.818 158.641 193.552 153.086 191.935 140.5C190.318 127.141 190.318 127.492 191.232 128.055C191.653 128.336 191.724 128.828 191.513 129.25ZM205.505 174.672L204.943 176.711L198.825 174.883C193.482 173.336 192.638 172.844 192.638 171.508C192.638 169.469 193.552 168.977 197.771 168.906C200.794 168.766 201.568 168.414 203.466 166.305L205.646 163.914L205.857 168.274C205.997 170.664 205.786 173.547 205.505 174.672Z" fill="#1A1A1A"/>
</svg>
