<svg width="92" height="183" viewBox="0 0 92 183" fill="none" xmlns="http://www.w3.org/2000/svg">
<path d="M41.1221 0.804749C36.2002 2.42194 31.8408 6.07819 29.5908 10.5079C27.0596 15.5704 27.5518 23.3047 30.7158 27.7344C31.6299 29.0704 31.9814 30.336 31.7002 31.3907C30.9268 34.4141 25.2314 39.8282 18.6221 43.7657C15.0361 45.8751 9.90332 49.7422 7.30176 52.2735L2.4502 56.9141V61.1329C2.4502 64.3672 2.73145 65.4922 3.5752 65.8438C4.20801 66.0547 10.5361 66.2657 17.708 66.2657H30.7861L30.2939 70.2735C29.5908 76.8126 25.9346 83.2813 19.6064 89.4688C9.48145 99.2422 6.3877 106.203 6.31738 119C6.31738 128.422 7.79395 133.695 12.2236 140.586C15.1064 145.016 22.5596 152.328 25.0205 153.102C26.2861 153.523 25.7236 154.016 21.3643 156.406C14.1221 160.344 10.2549 163.297 4.91113 169.063C0.34082 173.984 0.34082 174.055 0.34082 178.133V182.281H45.6924H91.0439V178.133V173.984L86.0518 168.641C81.1299 163.367 74.6611 158.516 68.4033 155.492L65.0986 153.945L68.2627 151.836C78.0361 145.367 85.4189 131.445 85.4189 119.352C85.4189 107.961 81.7627 99.8047 72.3408 90.0313C64.8877 82.4376 61.8643 77.0938 61.0908 70.2735L60.5986 66.2657H73.5361C80.6377 66.2657 87.1768 66.0547 88.0908 65.7735C89.6377 65.4219 89.708 65.1407 89.2861 61.0626C88.8643 56.9141 88.7236 56.6329 84.4346 52.4844C81.9736 50.0938 76.7705 46.2266 72.9033 43.836C65.9424 39.5469 61.5127 35.5391 59.9658 32.0938C59.333 30.6876 59.4736 29.8438 61.2314 26.7501C62.9893 23.586 63.2705 22.2501 63.2002 18.1016C63.1299 10.9297 59.7549 5.37506 53.4971 2.14069C50.4736 0.593811 43.9346 -0.109314 41.1221 0.804749Z" fill="#1A1A1A"/>
</svg>
