<svg width="223" height="190" viewBox="0 0 223 190" fill="none" xmlns="http://www.w3.org/2000/svg">
<path d="M107.044 1.02344C105.778 1.375 103.528 2.92188 101.911 4.53906C97.4815 8.96875 96.4268 14.875 99.0987 20.4297C100.927 24.2266 103.95 26.7578 107.888 27.8125C110.7 28.5859 110.911 28.7969 110.489 30.4141C109.786 33.3672 88.4112 91.9375 87.919 92.5C87.4971 92.8516 70.0596 56.2891 65.4893 45.6016C64.8565 44.0547 64.2237 43.2812 64.1534 43.8438C64.0128 44.4062 62.3253 56.5703 60.3565 70.9141C58.3878 85.1875 56.6299 97 56.4893 97.1406C56.2784 97.3516 26.044 62.6172 22.5987 58.1172L20.9112 55.9375L24.0049 52.7734C30.6143 46.2344 29.5596 36.0391 21.8252 31.1172C18.7315 29.1484 18.0987 29.0078 13.1065 29.2188C6.77837 29.5 4.59868 30.6953 2.20806 35.4062C-0.956006 41.5234 0.731494 50.1719 5.79399 54.0391C8.88775 56.4297 14.5127 57.625 17.3956 56.6406C19.294 55.9375 19.7159 56.0078 20.1377 57.0625C20.3487 57.6953 24.0752 74.0781 28.4346 93.4141C34.0596 118.938 36.0987 128.992 35.6768 130.188C35.3252 131.102 35.044 133.984 35.044 136.586C35.044 140.312 35.3956 142.07 36.8018 144.672C37.7862 146.5 38.5596 148.961 38.5596 150.227C38.5596 153.32 39.8956 157.75 41.4424 160C42.4268 161.336 42.7784 163.023 42.7784 166.117C42.7784 174.555 46.294 179.195 54.6612 182.008C61.9737 184.398 73.2237 187 82.8565 188.477C94.4581 190.305 128.911 190.305 140.513 188.477C150.146 187 161.396 184.398 168.708 182.008C177.005 179.195 180.591 174.555 180.591 166.328C180.591 163.164 181.013 161.336 182.349 159.016C183.263 157.328 184.247 154.094 184.528 151.773C184.81 149.453 185.794 146.078 186.708 144.32C188.536 140.594 188.888 135.18 187.552 130.188C186.708 127.094 188.114 120.555 201.122 65.4297L203.232 56.3594L206.325 56.8516C207.942 57.0625 210.614 56.9219 212.232 56.5C215.677 55.5859 220.528 51.4375 221.864 48.2734C223.974 43.1406 222.427 36.6016 218.067 32.4531C212.583 27.25 202.528 28.0938 197.958 34.1406C193.458 40.0469 194.021 47.3594 199.294 52.8438L202.388 56.0781L199.435 59.5938C189.099 71.8984 166.95 97.2812 166.739 97C166.458 96.7188 159.849 50.4531 159.357 45.1797L159.146 42.7891L157.177 47.0078C156.122 49.3281 150.919 60.6484 145.575 72.1094C140.302 83.6406 135.802 92.9922 135.591 93.0625C135.31 93.0625 113.724 33.6484 112.739 30.0625C112.388 28.7969 112.739 28.5156 114.638 28.0938C118.505 27.3203 121.88 24.5781 123.919 20.5703C126.661 14.9453 126.099 10.0234 122.021 5.38281C118.153 0.953125 112.669 -0.59375 107.044 1.02344ZM113.653 80.8984C120.052 98.125 123.638 107.969 123.638 108.25C123.638 108.391 118.294 108.531 111.685 108.531C105.146 108.531 99.7315 108.391 99.7315 108.18C99.7315 107.898 106.06 90.3906 108.872 83.0078C110.56 78.4375 112.458 77.6641 113.653 80.8984ZM71.7471 92.9219C71.5362 93.625 71.6768 93.8359 72.169 93.4844C72.6612 93.2031 74.4893 96.2969 77.1612 101.641L81.3799 110.289L79.4815 110.781C78.4268 111.062 75.2628 111.555 72.4503 111.766L67.3174 112.258L67.669 110.57C67.8799 109.656 68.7237 104.664 69.5674 99.5312C70.4112 94.3984 71.3253 90.5312 71.6768 91.0234C71.9581 91.5156 72.0284 92.3594 71.7471 92.9219ZM152.396 91.4453C152.466 92.1484 153.239 97.1406 154.224 102.484C155.138 107.898 155.841 112.398 155.771 112.469C155.489 112.68 142.552 110.781 142.2 110.43C141.567 109.867 150.497 93.0625 151.2 93.4844C151.552 93.6953 151.833 93.4844 151.692 92.9922C151.552 91.5859 151.692 90.25 152.044 90.25C152.255 90.25 152.396 90.8125 152.396 91.4453ZM43.2002 100.234C43.9034 101.078 44.1143 101.5 43.6924 101.219C43.2002 100.938 42.7784 101.078 42.7784 101.43C42.7784 101.852 43.2706 102.203 43.7627 102.203C44.3252 102.203 47.0674 104.805 49.8096 107.969L54.8721 113.805L52.8331 114.648C51.7081 115.07 49.669 115.633 48.2627 115.914C46.1534 116.336 45.6612 116.195 45.3096 115.07C44.7471 113.312 41.5831 98.6875 41.7237 98.6875C41.794 98.6875 42.4268 99.3906 43.2002 100.234ZM180.239 105.859C179.607 109.023 178.763 112.82 178.411 114.297L177.778 116.828L173.489 115.562C171.099 114.789 169.06 114.086 168.919 113.945C168.778 113.805 171.38 110.5 174.755 106.562C178.13 102.625 181.013 99.6016 181.153 99.7422C181.294 99.8828 180.872 102.625 180.239 105.859ZM141.919 119.43C157.95 121.117 176.161 125.055 178.622 127.305C181.083 129.555 179.677 132.438 176.161 132.438C175.036 132.438 171.732 131.805 168.708 131.031C153.732 127.234 135.661 125.406 112.036 125.406C89.2549 125.406 72.4503 127.023 56.9815 130.68C47.6299 132.93 45.0284 132.93 44.2549 130.82C43.3409 128.57 44.8877 126.672 48.4737 125.547C58.9503 122.383 79.6924 119.148 96.5674 118.094C104.583 117.602 132.497 118.375 141.919 119.43ZM118.013 138.836C121.528 140.805 124.341 142.562 124.341 142.703C124.341 143.266 112.669 150.016 111.685 150.016C110.278 150.016 98.8174 142.984 99.3096 142.492C99.6612 142.141 111.122 135.391 111.544 135.32C111.614 135.25 114.567 136.867 118.013 138.836ZM84.4034 140.172C86.3018 140.734 87.1456 141.438 87.7081 143.055C89.1143 147.133 86.0206 149.734 78.7784 150.438C75.1221 150.859 74.419 150.719 73.0831 149.383C72.169 148.469 71.6065 146.992 71.6065 145.445C71.6065 142.562 73.3643 141.156 78.0049 140.242C79.6924 139.891 81.2393 139.609 81.4503 139.539C81.6612 139.539 82.9268 139.82 84.4034 140.172ZM148.81 141.297C152.747 142.914 153.239 148.117 149.583 150.086C147.474 151.211 141.075 150.438 138.192 148.82C134.255 146.5 135.028 140.805 139.388 139.961C141.497 139.539 146.138 140.172 148.81 141.297ZM56.2081 147.555C59.0909 148.609 61.6221 149.734 61.9737 149.945C62.2549 150.227 60.2159 152.266 57.544 154.516C52.6924 158.453 52.5518 158.523 50.1612 157.75C48.8253 157.328 47.3487 156.273 46.9268 155.5C45.9424 153.602 45.8721 148.609 46.8565 146.711C47.9112 144.812 49.3174 144.953 56.2081 147.555ZM174.896 145.938C175.669 146.711 175.81 146.641 175.388 145.797C175.107 145.234 175.388 145.375 175.95 146.078C177.216 147.625 177.497 153.602 176.372 155.641C176.021 156.344 174.544 157.328 173.208 157.75C170.747 158.594 170.607 158.523 166.107 154.656C163.646 152.547 161.466 150.508 161.396 150.227C161.255 149.805 171.942 145.375 173.63 145.164C173.841 145.094 174.403 145.516 174.896 145.938ZM140.864 161.125C149.302 162.461 163.997 165.414 168.989 166.75L171.028 167.312L168.286 168.438C161.185 171.18 159.005 171.391 148.95 169.773C119.771 165.273 103.599 165.203 76.5284 169.422C64.0831 171.391 61.4815 171.25 55.0831 168.438L52.3409 167.172L62.8174 164.852C72.5206 162.742 87.2159 160.352 94.8096 159.648C96.5674 159.438 105.567 159.438 114.849 159.508C127.435 159.648 134.044 160.07 140.864 161.125Z" fill="#1A1A1A"/>
<path d="M58.5987 14.9454C55.4347 15.7188 53.7472 16.7735 51.3565 19.5157C46.9972 24.5079 46.7159 31.7501 50.7237 36.9532C54.0987 41.3126 56.9112 42.5782 62.6065 42.297C66.6143 42.086 67.7393 41.7345 69.9893 39.9063C77.3018 34.0704 77.6534 24.1563 70.6925 18.0392C67.0362 14.8048 63.169 13.8907 58.5987 14.9454Z" fill="#1A1A1A"/>
<path d="M157.95 14.9453C151.833 16.9141 148.106 21.4844 147.684 27.6016C147.333 32.1719 148.809 35.8281 152.255 39.0625C154.856 41.5234 157.387 42.4375 161.677 42.4375C168.708 42.4375 173.77 37.9375 175.247 30.5547C176.161 25.6328 173.137 19.4453 168.497 16.5625C165.755 14.875 160.622 14.1016 157.95 14.9453Z" fill="#1A1A1A"/>
</svg>
